<?xml version="1.0" encoding="UTF-8" standalone="no"?>
<!-- Created with Inkscape (http://www.inkscape.org/) -->

<svg
   width="210mm"
   height="297mm"
   viewBox="0 0 210 297"
   version="1.1"
   id="svg5"
   inkscape:version="1.2.2 (732a01da63, 2022-12-09)"
   sodipodi:docname="golf.svg"
   xmlns:inkscape="http://www.inkscape.org/namespaces/inkscape"
   xmlns:sodipodi="http://sodipodi.sourceforge.net/DTD/sodipodi-0.dtd"
   xmlns="http://www.w3.org/2000/svg"
   xmlns:svg="http://www.w3.org/2000/svg">
  <sodipodi:namedview
     id="namedview7"
     pagecolor="#ffffff"
     bordercolor="#111111"
     borderopacity="1"
     inkscape:showpageshadow="0"
     inkscape:pageopacity="0"
     inkscape:pagecheckerboard="1"
     inkscape:deskcolor="#d1d1d1"
     inkscape:document-units="mm"
     showgrid="false"
     inkscape:zoom="1.4841611"
     inkscape:cx="284.67261"
     inkscape:cy="615.16235"
     inkscape:window-width="2400"
     inkscape:window-height="1261"
     inkscape:window-x="-9"
     inkscape:window-y="-9"
     inkscape:window-maximized="1"
     inkscape:current-layer="layer2" />
  <defs
     id="defs2" />
  <g
     inkscape:groupmode="layer"
     id="layer3"
     inkscape:label="GNF">
    <path
       style="fill:#000000;fill-opacity:1;fill-rule:nonzero;stroke:none;stroke-width:0.264583"
       id="path121"
       d="m 199.51105,227.48277 c -2.06009,-0.0529 -4.1186,0.14469 -6.17234,0.28175 -5.37677,0.34959 -10.76453,0.48042 -16.15028,0.60274 -6.08131,0.13154 -12.16395,0.16803 -18.24648,0.17939 -6.38302,0.009 -12.76604,0.0174 -19.14904,0.0351 -7.29604,0.009 -14.59157,0.094 -21.88718,0.16278 -7.94817,0.0552 -15.89648,0.006 -23.844718,0.0111 -8.330071,0.0141 -16.659627,-0.0912 -24.989436,-0.1362 -7.077413,-0.0222 -14.154951,-0.0366 -21.232418,-0.0397 -7.039689,-0.033 -14.079127,-0.10315 -21.118628,-0.1621 -5.359929,-0.009 -10.719715,-0.0484 -16.079582,-0.0718 -4.1810717,-0.0201 -8.362076,-0.0397 -12.5428788,-0.0932 -1.6315801,-0.0967 -3.2862104,0.0441 -4.9123203,-0.15216 0.013306,0.3322 0.01243,0.78478 0.3888846,0.95375 0.2066184,0.0927 0.373057,-0.2569 0.5595853,-0.38534 0,0 -0.00857,-0.0391 -0.00857,-0.0391 v 0 c -0.2306836,-0.0665 -0.5157878,-0.36264 -0.6920508,-0.19962 -0.4154784,0.38425 -0.1362342,0.79205 0.040275,1.10437 1.6242699,-0.10756 3.2561913,-0.0236 4.8821662,-0.0722 4.1942231,-0.0316 8.3882715,-0.0839 12.5824668,-0.11882 5.338028,-0.0535 10.675872,-0.13147 16.014365,-0.10261 7.025068,-0.0268 14.050237,-0.0387 21.075258,0.009 7.045579,0.0565 14.090459,-0.0483 21.136184,-0.0355 8.313089,0.0108 16.62616,0.0331 24.939204,0.0616 7.955363,0.0181 15.910813,0.004 23.866093,-0.0366 7.2901,-0.0277 14.5798,-0.10988 21.86999,-0.11361 6.36755,-0.002 12.73499,-0.0335 19.10251,-0.0491 6.08275,-0.0252 12.16618,-0.0407 18.24754,-0.18709 5.38544,-0.12768 10.7737,-0.22067 16.1528,-0.52637 2.05081,-0.11921 4.11163,-0.18642 6.14582,-0.49068 0,0 0.0228,-0.38986 0.0228,-0.38986 z" />
  </g>
  <g
     inkscape:label="Ball"
     inkscape:groupmode="layer"
     id="layer1">
    <path
       style="fill:#000000;fill-opacity:1;fill-rule:nonzero;stroke:none;stroke-width:0.264583"
       id="path124"
       d="m 178.02162,217.05251 c 0.90622,-0.23473 1.83422,-0.35906 2.76816,-0.40352 0.88241,-0.0241 1.75324,0.10724 2.60663,0.3198 0.7167,0.19525 1.38098,0.52932 2.02607,0.89039 0.57065,0.30603 1.07603,0.7076 1.5412,1.15452 0.42537,0.44828 0.84598,0.90099 1.25012,1.36855 0.33243,0.45159 0.67076,0.8935 0.95026,1.38142 0.15531,0.30392 0.32877,0.63463 0.36159,0.98192 0.0142,0.15006 -0.013,0.30124 -0.0146,0.45196 -0.052,0.45967 -0.20075,0.89532 -0.48669,1.25971 -0.16254,0.38683 -0.28309,0.63611 0.36275,-0.47857 0.0364,-0.0628 -0.0939,0.11075 -0.14389,0.16338 -0.16449,0.1733 -0.34986,0.3157 -0.54032,0.45861 -0.50685,0.33173 -1.03976,0.62406 -1.57076,0.91715 -0.69577,0.4039 -1.46334,0.63471 -2.21791,0.89906 -1.06222,0.34395 -2.15761,0.52208 -3.26373,0.64665 -1.69451,0.22489 -3.4147,0.137 -5.11026,-0.0279 -1.26376,-0.18027 -2.5286,-0.42716 -3.74129,-0.83418 -0.64782,-0.21743 -0.88994,-0.3443 -1.5039,-0.62098 -0.85054,-0.4407 -1.67907,-1.01004 -2.03801,-1.94069 -0.0524,-0.13589 -0.0782,-0.2806 -0.1173,-0.42091 -0.0132,-0.13925 -0.0371,-0.27791 -0.0397,-0.41777 -0.005,-0.24974 0.0345,-0.56937 0.10906,-0.80838 0.0431,-0.13827 0.20723,-0.54038 0.16591,-0.40157 -0.33208,1.11549 -0.63196,1.44763 -0.0823,0.68886 0.32818,-0.49839 0.81418,-0.80476 1.29414,-1.13481 0.17031,-0.11712 0.3291,-0.25208 0.50802,-0.35556 0.25412,-0.14697 1.1053,-0.51718 1.35915,-0.63024 1.47323,-0.62978 2.99141,-1.14226 4.52692,-1.59555 0.6709,-0.17191 1.33601,-0.37463 2.01424,-0.51746 0.55437,-0.11675 0.77599,-0.11624 1.30908,-0.26744 0.20716,-0.0588 0.40805,-0.13774 0.61207,-0.20661 0.37548,-0.22755 0.90794,-0.58268 1.3361,-0.71422 0.17074,-0.0525 0.3553,-0.0371 0.53295,-0.0557 0,0 0.0174,-0.036 0.0174,-0.036 v 0 c -0.16944,10e-4 -0.34259,0.0392 -0.50833,0.004 -0.0794,-0.0169 -0.90296,-0.4278 -0.95305,-0.45244 -0.196,-0.005 -0.39236,-0.0293 -0.58801,-0.0164 -0.45524,0.03 -0.8049,0.13896 -1.243,0.24741 -0.67632,0.16744 -1.35316,0.33307 -2.02386,0.5223 -1.53853,0.45393 -3.06183,0.96011 -4.5425,1.58005 -1.00583,0.42975 -0.41262,0.1549 -1.33043,0.62603 -0.20803,0.10678 -0.42552,0.19624 -0.62588,0.3168 -0.50436,0.30349 -0.92094,0.73309 -1.37719,1.09872 -0.72058,0.89875 -0.31149,0.31709 -1.11103,2.26599 -0.22185,0.54077 -0.26561,1.10504 -0.13877,1.67547 0.0493,0.14167 0.0862,0.28824 0.14777,0.425 0.43644,0.96925 1.37933,1.50595 2.3005,1.94038 0.2459,0.0994 0.48817,0.20833 0.73772,0.29819 1.42783,0.51416 2.94184,0.76915 4.44252,0.95118 1.7485,0.14373 3.50037,0.20059 5.25288,0.0812 1.10114,-0.1202 2.20595,-0.279 3.24724,-0.6753 0.20888,-0.0739 0.6137,-0.20965 0.81621,-0.30969 0.10552,-0.0521 0.19776,-0.12822 0.30173,-0.18337 0.33474,-0.17753 0.69866,-0.30081 1.02112,-0.5032 0.55144,-0.31922 1.06844,-0.6754 1.57402,-1.06185 0.7656,-0.55812 0.8191,-0.80086 1.45038,-1.70471 0.0413,-0.0592 0.0931,-0.11045 0.13966,-0.16567 0.11913,-0.43593 0.23965,-0.87431 0.23427,-1.32959 -0.0277,-0.51503 -0.23728,-1.01577 -0.48476,-1.46353 -0.29342,-0.4939 -0.62714,-0.9677 -1.04421,-1.36607 -0.4207,-0.4681 -0.87357,-0.90592 -1.30816,-1.36099 -0.47304,-0.44611 -0.98456,-0.84655 -1.56564,-1.14473 -0.63102,-0.34716 -1.27972,-0.67345 -1.98461,-0.84182 -0.86618,-0.20982 -1.74655,-0.33233 -2.64076,-0.28665 -0.90199,0.0608 -1.80871,0.20071 -2.6479,0.55212 0,0 -0.3291,0.56728 -0.3291,0.56728 z" />
  </g>
  <g
     inkscape:groupmode="layer"
     id="layer2"
     inkscape:label="Flag">
    <path
       style="fill:#000000;fill-opacity:1;fill-rule:nonzero;stroke:none;stroke-width:0.264583"
       id="path126"
       d="m 29.226981,163.74633 c 0.90933,0.49732 1.822595,0.98673 2.727811,1.49172 1.189363,0.63805 2.366185,1.2987 3.535352,1.97292 1.067655,0.62201 2.086981,1.32144 3.104991,2.02036 1.00951,0.73711 2.007373,1.48837 3.04142,2.19113 1.097899,0.69788 2.169287,1.4356 3.242093,2.17105 0.503296,0.32966 1.004605,0.66286 1.484987,1.02549 0.269185,0.2032 0.511503,0.38661 0.694831,0.66987 -0.04624,0.45755 0.199458,-0.31586 0.176919,-0.48714 -0.01125,-0.0854 -0.166593,0.0465 -0.25213,0.0566 -0.158745,0.0188 -0.318886,0.0239 -0.478626,0.0299 -0.51276,0.0193 -0.780407,0.009 -1.304583,0.002 -1.614514,-0.0468 -3.226142,-0.1584 -4.837348,-0.26755 -1.664589,-0.1169 -3.329358,-0.2313 -4.994521,-0.33974 -1.70261,-0.10699 -3.404759,-0.22148 -5.106345,-0.34366 -1.167196,-0.0785 -2.334948,-0.14535 -3.503485,-0.19998 -0.05253,-0.002 -0.667384,-0.0361 -0.745627,-0.0142 -0.11468,0.0322 -0.339487,0.22029 -0.446375,0.30477 0,0 -0.0128,0.0406 -0.0128,0.0406 v 0 c 0.02258,0.0742 0.02458,0.1581 0.06773,0.22251 0.244232,0.36455 0.600561,0.22229 0.97596,0.26435 1.185934,0.0504 2.372029,0.0971 3.556109,0.18366 1.702728,0.10907 3.404959,0.22553 5.107672,0.33479 1.664833,0.11247 3.329281,0.23032 4.994302,0.34005 1.609566,0.11173 3.219907,0.21649 4.832381,0.27645 0.502613,0.0116 2.874764,0.29514 2.318348,-1.02962 -0.632499,-0.64791 -1.471938,-1.05811 -2.204717,-1.57553 -1.128594,-0.70023 -2.246387,-1.41737 -3.368149,-2.12843 -1.042759,-0.68646 -2.04579,-1.4259 -3.052177,-2.16409 -1.016204,-0.70355 -2.041732,-1.3959 -3.109759,-2.01914 -1.162267,-0.66268 -2.328506,-1.31844 -3.515932,-1.93532 -0.907023,-0.4866 -1.801722,-1.00002 -2.74566,-1.41349 0,0 -0.182674,0.31914 -0.182674,0.31914 z" />
    <path
       style="fill:#000000;fill-opacity:1;fill-rule:nonzero;stroke:none;stroke-width:0.264583"
       id="path134"
       d="m 28.631644,164.74524 c 0.0453,0.69312 0.01804,1.39125 0.09732,2.08145 0.02814,0.65244 0.246763,1.26573 0.419676,1.88857 0.124402,0.58042 0.281475,1.15181 0.43936,1.72378 0.223326,0.686 0.292253,1.41075 0.343344,2.12698 -0.0024,0.29808 0.04868,0.60345 0.02185,0.9015 -0.02241,0.2488 -0.09914,0.50497 -0.136253,0.75331 -0.0519,0.66579 -0.08323,1.33252 -0.102605,2.00005 -0.03795,0.6951 -0.01148,1.38789 0.08902,2.07618 0.107537,0.64564 0.254511,1.28366 0.361757,1.92925 0.0801,0.69281 0.09895,1.38832 0.06484,2.08433 -0.12415,0.91095 -0.09876,1.82923 -0.104944,2.74566 0.0052,0.92324 -0.09183,1.84197 -0.149911,2.76227 -0.02085,0.7002 -0.0068,1.39871 -0.07351,2.09657 -0.06789,0.61419 -0.125762,1.22836 -0.15095,1.84587 -0.04633,0.7466 -0.04746,1.49456 -0.05003,2.24224 -0.02635,0.8068 0.01,1.6111 0.06097,2.41588 0.0088,0.95231 -0.0041,1.9055 -0.04448,2.85706 -0.08672,0.84251 -0.123233,1.69139 -0.182018,2.53712 -0.06363,0.95759 0.03059,1.91423 0.141076,2.86445 0.142589,0.95156 0.339995,1.89405 0.489498,2.84449 0.127926,0.89671 0.0352,1.80176 -0.02648,2.69961 -0.06513,0.88458 -0.221785,1.75808 -0.303544,2.64083 -0.07792,0.8129 -0.05418,1.62995 -0.04712,2.44512 0.0073,0.83101 0.110352,1.65642 0.179038,2.48362 0.0804,0.79216 0.145172,1.58491 0.118314,2.38125 -0.03503,0.68977 -0.117639,1.37599 -0.175892,2.06389 -0.05732,0.62248 -0.230442,1.22856 -0.426972,1.81983 -0.213479,0.54278 -0.306652,1.11813 -0.419444,1.68697 -0.08845,0.50111 -0.133291,1.00859 -0.165258,1.51602 0.0063,0.2641 -0.03285,0.52413 -0.05831,0.78607 -0.02257,0.24257 -0.05021,0.48709 -0.09659,0.72647 -0.08583,0.33977 0.02842,0.24217 0.461764,0.28611 0,0 0.03976,-0.004 0.03976,-0.004 v 0 c 0.320948,-0.0204 0.396883,0.0246 0.446524,-0.26355 0.04721,-0.2426 0.06966,-0.48994 0.102087,-0.73478 0.02915,-0.26294 0.06307,-0.52574 0.06582,-0.79069 0.0235,-0.50366 0.07024,-1.00635 0.15553,-1.50359 0.100799,-0.5666 0.204042,-1.13383 0.407938,-1.67474 0.195728,-0.59933 0.37951,-1.21109 0.435318,-1.84148 0.06714,-0.74405 0.10064,-1.49189 0.161772,-2.23664 0.02479,-0.74328 -0.01947,-1.48445 -0.09097,-2.22448 -0.06386,-0.82454 -0.179208,-1.64678 -0.17244,-2.47522 0.01876,-0.81275 0.0531,-1.62542 0.111932,-2.43631 0.08121,-0.88271 0.213532,-1.75921 0.284001,-2.64295 0.07,-0.90544 0.159488,-1.81779 0.03022,-2.72271 -0.14545,-0.94333 -0.315397,-1.88306 -0.348001,-2.83982 -0.07627,-1.01684 -0.180163,-2.03692 -0.114726,-3.05743 0.06679,-0.90926 0.154424,-1.82017 0.132852,-2.73274 0.03672,-0.93465 0.06718,-1.87062 0.05197,-2.80605 -0.0516,-0.78603 -0.07062,-1.57169 -0.06088,-2.35945 0.0011,-0.74241 7.94e-4,-1.48494 0.01185,-2.22725 0.03262,-0.61384 0.09179,-1.225 0.13325,-1.83804 0.03983,-0.6963 0.02844,-1.39073 0.02985,-2.08787 0.04657,-0.90841 0.122365,-1.81647 0.111932,-2.72668 -5.29e-4,-0.90718 -0.01106,-1.81347 0.103129,-2.71583 0.0336,-0.74458 0.02228,-1.49425 -0.09373,-2.23205 -0.09303,-0.64829 -0.241707,-1.28641 -0.350245,-1.93224 -0.09813,-0.68244 -0.110781,-1.36822 -0.0914,-2.0571 0.01053,-0.6941 0.03425,-1.38708 0.03792,-2.08086 -0.06652,-0.65735 -0.18697,-1.30542 -0.187907,-1.96848 -0.05629,-0.69611 -0.16383,-1.38155 -0.328094,-2.06072 -0.158774,-0.56932 -0.305697,-1.14136 -0.448328,-1.71488 -0.169373,-0.59679 -0.331851,-1.19688 -0.384887,-1.81776 -0.07831,-0.67568 -0.198364,-1.35799 -0.12442,-2.03974 0,0 -0.631153,0.53369 -0.631153,0.53369 z" />
  </g>
</svg>
