<?xml version="1.0" encoding="UTF-8" standalone="no"?>
<!-- Created with Inkscape (http://www.inkscape.org/) -->

<svg
   width="200"
   height="100"
   viewBox="0 0 170.06724 32.445381"
   version="1.1"
   id="svg5"
   inkscape:version="1.2.2 (732a01da63, 2022-12-09)"
   sodipodi:docname="signature.svg"
   xmlns:inkscape="http://www.inkscape.org/namespaces/inkscape"
   xmlns:sodipodi="http://sodipodi.sourceforge.net/DTD/sodipodi-0.dtd"
   xmlns="http://www.w3.org/2000/svg"
   xmlns:svg="http://www.w3.org/2000/svg">
  <sodipodi:namedview
     id="namedview7"
     pagecolor="#ffffff"
     bordercolor="#111111"
     borderopacity="1"
     inkscape:showpageshadow="0"
     inkscape:pageopacity="0"
     inkscape:pagecheckerboard="1"
     inkscape:deskcolor="#d1d1d1"
     inkscape:document-units="mm"
     showgrid="false"
     inkscape:zoom="0.74208053"
     inkscape:cx="584.16841"
     inkscape:cy="-33.689066"
     inkscape:window-width="2400"
     inkscape:window-height="1261"
     inkscape:window-x="-9"
     inkscape:window-y="-9"
     inkscape:window-maximized="1"
     inkscape:current-layer="layer1" />
  <defs
     id="defs2" />
  <g
     inkscape:label="Layer 1"
     inkscape:groupmode="layer"
     id="layer1"
     transform="translate(-28.879951,-137.98199)">
    <path
       style="fill:#000000;fill-opacity:1;fill-rule:nonzero;stroke:none;stroke-width:0.264583"
       id="path129"
       d="m 56.579007,146.99058 c 0.01635,0.44987 0.02117,0.90368 0.07613,1.35117 0.01868,0.15211 0.07362,0.52653 0.170974,0.67905 0.04145,0.0649 0.116567,0.10076 0.17485,0.15113 0.08434,0.009 0.168386,0.0319 0.253018,0.0265 0.330827,-0.0209 0.646891,-0.19584 0.95781,-0.29187 0.473014,-0.14609 0.521476,-0.1345 1.062996,-0.23013 0.299526,-0.029 0.598461,-0.0649 0.898578,-0.0869 1.292534,-0.0948 2.588389,-0.13953 3.881098,-0.23193 1.243693,-0.0889 2.487062,-0.18349 3.729035,-0.29382 5.409666,-0.48057 6.992652,-0.68712 12.697653,-1.312 10.047674,-0.78774 5.043263,-0.38237 15.013284,-1.21555 0,0 0.01125,-0.0589 0.01125,-0.0589 v 0 c -9.966812,0.8342 -4.963465,0.42858 -15.010085,1.21625 -4.173604,0.16332 -8.346483,0.34588 -12.520655,0.49399 -1.237393,0.0439 -2.475172,0.0766 -3.712959,0.10747 -1.285406,0.0321 -2.571893,0.0257 -3.85663,0.0782 -0.301741,0.0123 -0.60249,0.0425 -0.903734,0.0637 -0.569021,0.081 -0.583386,0.062 -1.078387,0.1978 -0.28685,0.0787 -0.577556,0.2371 -0.872048,0.28358 -0.05518,0.009 -0.111662,-0.004 -0.167494,-0.006 -0.03937,-0.0398 -0.0913,-0.0703 -0.118118,-0.11948 -0.08257,-0.15141 -0.135813,-0.48032 -0.153956,-0.62941 -0.05528,-0.45427 -0.05667,-0.91527 -0.05321,-1.37197 0,0 -0.47939,1.19875 -0.47939,1.19875 z" />
    <path
       style="fill:#000000;fill-opacity:1;fill-rule:nonzero;stroke:none;stroke-width:0.264583"
       id="path131"
       d="m 74.247424,147.82178 c -0.549542,0.12343 -0.614124,0.10062 -1.196107,0.48274 -0.35674,0.23423 -0.676418,0.52055 -1.014624,0.78083 -0.628494,0.41823 -1.243198,0.85796 -1.885479,1.2547 -2.585585,1.59709 -3.54589,2.03532 -6.347531,3.51106 -3.741246,1.84186 -7.620971,3.41067 -11.648006,4.51005 -2.168631,0.59204 -4.084852,0.9956 -6.321674,1.10826 -0.753845,0.038 -1.508876,-0.0469 -2.263315,-0.0703 -0.666915,2.35836 -1.652578,-1.53063 -2.049904,-0.89909 -0.289541,0.46022 -0.480596,1.26363 -0.0782,1.6293 0.349165,0.3173 0.869575,-0.37534 1.325796,-0.49557 1.517664,-0.39994 3.375955,-0.56643 4.898491,-0.75556 3.157794,-0.34478 2.895344,-0.2887 6.03544,-0.74092 0.874892,-0.12599 1.758376,-0.20909 2.62137,-0.40029 2.594909,-0.79618 1.392044,-0.50797 3.590464,-0.93703 0,0 0.02043,-0.0564 0.02043,-0.0564 v 0 c -2.818016,0.41664 -0.03529,0.11201 -3.387278,0.0833 -0.848775,-0.007 -1.69628,0.0676 -2.544648,0.0948 -4.806395,0.15431 -1.04943,-0.0178 -5.969241,0.24071 -1.496621,0.11498 -3.414321,0.21914 -4.929658,0.47969 -0.46748,0.0804 -1.096053,-0.0375 -1.381453,0.34143 -0.337412,0.44792 -1.659177,2.54229 -0.345818,2.91383 0.497527,0.14075 1.022935,0.15158 1.534403,0.22737 0.775709,-0.011 1.553958,0.0308 2.327129,-0.0329 1.005565,-0.0828 2.005782,-0.23145 2.999597,-0.40566 1.195591,-0.20959 2.390495,-0.43645 3.564443,-0.74502 1.278009,-0.33591 2.535385,-0.74969 3.782655,-1.18611 3.508732,-1.22773 4.498742,-1.76541 7.889997,-3.29812 1.174109,-0.61571 2.363329,-1.20341 3.522329,-1.84711 2.502503,-1.38987 2.619182,-1.54982 4.740981,-2.96199 0.407588,-0.27127 0.826889,-0.52514 1.227905,-0.80604 0.369308,-0.25869 0.693809,-0.57776 1.073261,-0.82334 0,0 0.208246,-1.1966 0.208246,-1.1966 z" />
    <path
       style="fill:#000000;fill-opacity:1;fill-rule:nonzero;stroke:none;stroke-width:0.264583"
       id="path133"
       d="m 64.947595,158.55351 c 1.475701,-0.397 2.909314,-0.92994 4.333516,-1.47967 0.598691,-0.2116 1.169545,-0.49947 1.773097,-0.69822 0.06824,-0.0225 0.397827,-0.12703 0.46582,-0.0776 0.025,0.0182 -0.02143,0.058 -0.03216,0.087 0.01103,-1.97163 0.06782,-1.40819 -0.252833,-0.85344 -0.09385,0.16236 -0.193635,0.30387 -0.252174,0.48257 0.05598,0.49115 0.0086,1.0055 0.167939,1.47344 0.035,0.10278 0.217434,-0.01 0.324612,-0.0272 0.156133,-0.0254 0.310345,-0.0621 0.463682,-0.1009 0.71818,-0.18186 0.673428,-0.20312 1.434179,-0.42372 0.323882,-0.0939 0.650417,-0.17845 0.975627,-0.26767 2.163035,-0.58571 4.376624,-0.93644 6.596108,-1.22109 0.235971,-0.016 0.47159,-0.0384 0.707908,-0.0479 0.109355,-0.004 0.219774,-0.008 0.328266,0.006 0.01363,0.002 0.01513,0.0526 0.01363,0.0389 -0.04684,-0.42885 0.07493,-0.91726 -0.149796,-1.28551 -0.09931,-0.16275 -0.37152,0.0859 -0.557977,0.12569 -0.226502,0.0483 -0.453893,0.0924 -0.680837,0.13858 -0.326665,0.0642 -0.806794,0.16263 -1.149151,0.21637 -0.06467,0.0102 -0.186503,-0.0445 -0.195332,0.0204 -0.06126,0.45018 -0.132646,0.93065 0.0071,1.36295 0.04254,0.1316 0.26991,-0.0611 0.406292,-0.0841 0.212606,-0.0358 0.426804,-0.0614 0.640207,-0.0921 0.801827,-0.0716 1.6344,-0.14415 2.428594,0.0442 0.249563,0.0592 0.849109,0.22288 0.938173,0.58363 0.03324,0.13464 -0.08448,0.26418 -0.126722,0.39627 -0.02387,-0.31896 0.177797,-0.75659 -0.07158,-0.95689 -0.190315,-0.15286 -0.39275,0.29168 -0.603681,0.41454 -0.23726,0.13819 -0.493533,0.24089 -0.73759,0.36669 -0.197953,0.10203 -0.389966,0.21537 -0.588269,0.31673 -0.364826,0.18647 -0.253886,0.24162 -0.398672,0.15541 -0.07401,0.37869 -0.507089,0.87602 -0.222038,1.13609 0.274288,0.25024 0.695219,-0.26109 1.045186,-0.3851 0.463659,-0.16429 0.930892,-0.31834 1.39555,-0.47978 1.134793,-0.39428 1.62106,-0.58717 2.75888,-0.92827 0.380746,-0.11414 0.766537,-0.21074 1.149805,-0.31611 1.36036,-0.39007 2.754431,-0.27575 4.144007,-0.20369 0.15585,0.0129 0.311798,0.0247 0.467548,0.0388 0.399634,0.0362 0.41049,0.052 0.85286,0.0624 0.858504,0.0203 1.707518,-0.054 2.562191,-0.12522 1.088416,-0.0997 2.175158,-0.21606 3.262405,-0.32754 0.277326,-0.0284 0.561139,-0.0215 0.83157,-0.0892 0.38014,-0.0952 0.666285,-0.3576 0.966555,-0.58437 0.096,-0.0564 0.19211,-0.11276 0.28817,-0.16914 0,0 0.01,-0.0592 0.01,-0.0592 v 0 c -0.078,-0.0372 -0.15596,-0.0744 -0.23394,-0.11155 -0.11047,-0.0851 -0.20274,-0.20153 -0.3314,-0.25533 -0.518373,-0.21674 -0.758392,-0.11639 -1.308191,-0.0533 -1.122913,0.12876 -2.246008,0.25766 -3.374628,0.32765 -0.845608,0.0361 -1.087051,0.0615 -1.886754,0.045 -0.701117,-0.0145 -1.398432,-0.10768 -2.10021,-0.10618 -1.320779,-0.0432 -2.555885,-0.16937 -3.84629,0.26517 -1.317239,0.4066 -2.628691,0.83329 -3.927994,1.29464 -0.412731,0.14655 -0.822825,0.30052 -1.231812,0.45721 -0.29504,0.11304 -0.647608,0.13797 -0.880116,0.3519 -0.483467,0.44485 -0.800597,1.04191 -1.200898,1.56286 0.285937,-2.7e-4 0.167394,0.009 0.662789,-0.13234 0.716343,-0.20433 0.950333,-0.27022 1.595895,-0.63425 0.223197,-0.12586 0.515046,-0.19785 0.644496,-0.41899 0.3249,-0.55502 0.441132,-1.20824 0.661699,-1.81236 -0.04187,-0.13079 -0.04548,-0.28084 -0.125616,-0.39235 -0.229738,-0.3197 -0.676656,-0.43135 -1.025541,-0.50247 -0.76731,-0.15643 -1.555763,-0.10291 -2.330217,-0.0625 -0.213495,0.0169 -0.426961,0.0342 -0.640488,0.0507 -0.132741,0.0103 -0.343963,-0.0918 -0.398309,0.0297 -0.834834,1.86711 -0.594995,1.46838 -0.02646,1.32601 0.36326,-0.091 0.787887,-0.16946 1.149929,-0.24125 0.222409,-0.0408 0.444622,-0.0827 0.667232,-0.12237 0.186642,-0.0333 0.456536,0.062 0.560501,-0.0965 1.052282,-1.60457 0.749803,-1.48407 0.02204,-1.36289 -0.198498,0.0331 -0.396753,0.0676 -0.595127,0.10134 -2.263442,0.29027 -4.519518,0.65345 -6.740147,1.18502 -0.833937,0.20364 -1.669888,0.41667 -2.514251,0.57441 -0.147804,0.0276 -0.296531,0.0516 -0.446148,0.0665 -0.07904,0.008 -0.222218,-0.076 -0.238276,0.002 -0.09059,0.43883 -0.0263,0.89578 -0.03945,1.34367 -0.0051,-0.0409 -0.0245,-0.0826 -0.01519,-0.12281 0.02003,-0.0864 0.169022,-0.30427 0.20691,-0.36603 0.424632,-0.69219 0.349565,-0.70745 0.254952,-1.95318 -0.04262,-0.0272 -0.07795,-0.0735 -0.127854,-0.0816 -0.126955,-0.0207 -0.440574,0.12733 -0.506571,0.15521 -0.591466,0.24989 -1.169755,0.53091 -1.76869,0.76343 -1.404273,0.55394 -2.827993,1.09029 -4.313012,1.38457 0,0 0.0265,1.35771 0.0265,1.35771 z" />
    <path
       style="fill:#000000;fill-opacity:1;fill-rule:nonzero;stroke:none;stroke-width:0.264583"
       id="path135"
       d="m 98.185339,150.19127 c 3.238271,-0.86702 6.527521,-1.56259 9.829721,-2.13949 1.02082,-0.17834 2.0469,-0.32519 3.07035,-0.48778 0.84887,-0.0884 3.69326,-0.55161 4.74619,-0.12879 0.2863,0.11496 0.73467,0.78902 0.42779,0.82076 -0.48255,0.0499 -0.79448,-0.88424 -1.2561,-0.73507 -1.1772,0.38042 -2.01124,1.44219 -3.04326,2.12441 -1.28772,0.85125 -2.60944,1.64987 -3.91417,2.47481 -1.65111,0.98102 -6.5018,3.84773 -8.21844,4.92535 -1.06844,0.67071 -2.153819,1.32082 -3.164411,2.07588 -1.657546,1.23844 -2.890634,2.63078 -4.219962,4.16767 0,0 -0.0099,0.0592 -0.0099,0.0592 v 0 c 0.205774,-0.22815 0.374997,-0.49558 0.617323,-0.68445 0.373912,-0.29143 0.80431,-0.50227 1.213154,-0.74225 0.690637,-0.40537 1.400697,-0.77756 2.084965,-1.19359 1.058151,-0.64335 2.085697,-1.33603 3.141122,-1.98385 3.484849,-2.13898 4.698859,-2.79957 8.303579,-4.86934 0.012,-0.007 6.71297,-3.70551 7.15916,-4.21614 0.39696,-0.45429 3.12599,-3.76934 0.87311,-3.68911 -0.6794,0.0242 -1.34344,0.20966 -2.01386,0.32245 -0.91404,0.15377 -1.82627,0.31814 -2.73941,0.47721 -4.30307,0.74947 -8.60861,1.48453 -12.921069,2.17817 0,0 0.03412,1.24397 0.03412,1.24397 z" />
    <path
       style="fill:#000000;fill-opacity:1;fill-rule:nonzero;stroke:none;stroke-width:0.264583"
       id="path161"
       d="m 126.6634,147.51328 c -0.21162,0.0806 -0.43133,0.14259 -0.63485,0.24188 -0.44568,0.21741 -0.87609,0.46497 -1.3092,0.70646 -3.17389,1.7697 -0.62297,0.39115 -4.21911,2.45759 -1.84832,1.06209 -3.6522,2.0287 -5.525,3.04717 -2.25206,1.19524 -2.76814,1.48733 -4.98299,2.59596 -0.6638,0.33225 -1.34175,0.63622 -2.00034,0.97868 -0.52992,0.27554 -1.04398,0.58057 -1.56384,0.87464 -0.39657,0.22433 -0.77713,0.47833 -1.18543,0.68054 -0.25214,0.12487 -0.52656,0.19848 -0.78985,0.29772 0,0 -0.0125,0.038 -0.0125,0.038 v 0 c 0.2595,-0.0871 0.51657,-0.18186 0.77849,-0.26141 0.34893,-0.10598 0.70883,-0.17585 1.05348,-0.29501 0.51037,-0.17645 1.01742,-0.36609 1.50847,-0.59075 0.66246,-0.30307 1.29991,-0.65808 1.94808,-0.99063 2.55465,-1.3107 2.36968,-1.22468 5.01321,-2.62693 0.92358,-0.50547 1.84717,-1.01094 2.77075,-1.51641 0.89712,-0.50149 1.79066,-1.00943 2.69134,-1.50448 0.43619,-0.23974 3.64404,-1.96373 4.30142,-2.31338 0.44673,-0.23761 0.90222,-0.45898 1.34344,-0.70665 0.23442,-0.13159 0.45471,-0.28688 0.68206,-0.43032 0,0 0.13235,-0.68267 0.13235,-0.68267 z" />
    <path
       style="fill:#000000;fill-opacity:1;fill-rule:nonzero;stroke:none;stroke-width:0.264583"
       id="path163"
       d="m 107.84436,155.58063 c 0.22585,-0.007 0.45291,0.002 0.67757,-0.0219 0.93828,-0.10169 2.16207,-0.35555 3.05027,-0.53449 2.18109,-0.43942 4.35563,-0.91247 6.53105,-1.37887 4.39179,-1.03661 -0.46307,0.17769 3.34149,-0.9611 0.3656,-0.10943 0.74386,-0.17101 1.11579,-0.25652 0,0 0.007,-0.0394 0.007,-0.0394 v 0 c -0.36983,0.073 -0.73547,0.17205 -1.10951,0.21902 -3.79045,0.476 1.22401,-0.41058 -3.28408,0.45396 -2.13618,0.46137 -4.2729,0.91809 -6.41435,1.35449 -0.78275,0.15952 -2.17275,0.42931 -3.00539,0.62467 -0.24833,0.0583 -0.49287,0.13169 -0.7393,0.19754 0,0 -0.17013,0.34268 -0.17013,0.34268 z" />
    <path
       style="fill:#000000;fill-opacity:1;fill-rule:nonzero;stroke:none;stroke-width:0.264583"
       id="path165"
       d="m 115.43506,157.62827 c 2.52698,-0.98871 5.13928,-1.74313 7.76672,-2.41218 1.38908,-0.30678 1.22658,-0.28836 2.47667,-0.50846 0.17136,-0.0302 0.41939,0.063 0.5155,-0.0821 0.10972,-0.16558 0.10381,-0.49378 -0.0689,-0.59189 -0.21187,-0.12036 -0.47821,0.094 -0.71631,0.14582 -0.35381,0.077 -0.7062,0.16036 -1.0593,0.24054 -0.34996,0.0763 -1.65176,0.36563 -2.06637,0.43746 -0.18685,0.0324 -0.37514,0.0631 -0.56466,0.0692 -0.0476,0.002 -0.13319,-0.0939 -0.13495,-0.0464 -0.0338,0.90961 0.0997,0.63192 0.69065,0.38215 1.63787,-0.65206 3.3727,-1.17843 5.15952,-0.99676 0.42874,0.0436 0.84741,0.15738 1.27112,0.23607 0.41623,0.1481 0.85195,0.24993 1.24869,0.44429 0.55705,0.27289 1.3888,0.80998 1.60618,1.47497 0.0878,0.26868 0.10534,0.60737 -0.0448,0.84685 -0.0862,0.1375 -0.33537,-0.057 -0.48692,0.001 -0.52247,0.2003 -0.998,0.50634 -1.497,0.75952 -2.09103,0.58408 -4.34505,1.14106 -6.51603,0.57987 -0.38447,-0.0994 -0.83885,-0.21834 -1.05651,-0.55048 -0.70859,-1.08129 0.97146,-0.70745 1.02149,-0.70434 0.67371,-0.31424 1.33393,-0.6592 2.02113,-0.94273 2.91466,-1.20256 6.04074,-2.0279 9.13816,-2.59854 0.57738,-0.10637 1.15934,-0.18614 1.73901,-0.27921 1.27502,-0.20679 2.56505,-0.27756 3.84499,-0.44306 0.19802,-0.0256 0.87867,-0.10785 1.14819,-0.21239 0.0315,-0.0122 0.0422,-0.0528 0.0634,-0.0792 0.0711,-0.36286 0.26949,-0.7231 0.21335,-1.08858 -0.006,-0.042 -1.12307,-0.0653 -1.2452,-0.071 -0.26448,-0.0125 -0.23496,0.0605 -0.26548,-0.0486 -0.0565,0.31174 -0.29829,0.64582 -0.16939,0.93522 0.0765,0.17174 0.37343,-0.0481 0.5613,-0.0553 0.26716,-0.0102 0.5352,-0.013 0.80205,0.003 0.54482,0.0334 1.18064,0.11181 1.6773,0.36421 0.2454,0.12471 0.44157,0.3288 0.66236,0.4932 0.11733,0.23456 0.32107,0.44322 0.35199,0.70365 0.18484,1.55689 0.002,0.61299 -0.45789,1.00805 -0.40606,0.34858 -0.71812,0.80147 -1.14097,1.12948 -1.33522,1.03576 -2.08924,1.21829 -3.66069,1.87077 -1.80566,0.43099 -2.58176,0.74074 -4.44348,0.70504 -0.57061,-0.011 -1.1491,-0.0759 -1.69486,-0.24284 -0.34046,-0.10417 -0.73794,-0.24471 -0.91265,-0.55494 -0.66174,-1.175 0.82422,-0.63536 0.94431,-0.61316 0.60668,-0.27002 1.19686,-0.58067 1.82004,-0.81004 0.71879,-0.26456 1.45694,-0.47632 2.19825,-0.66893 1.95499,-0.50796 3.96122,-0.80076 5.97995,-0.86011 0.46985,-0.0138 0.94007,0.008 1.41011,0.0122 0.41479,0.0104 0.82946,0.0304 1.24438,0.0312 0.90644,0.002 1.43459,-0.0168 2.32932,-0.16253 2.32794,-0.37923 0.16051,-0.10885 2.44736,-0.55922 0.29818,-0.0587 0.60332,-0.0737 0.90499,-0.1106 0.34366,-0.0208 0.52192,-0.10352 0.80478,0.0607 0.45168,0.26215 -0.1893,0.10529 0.53829,0.31804 0.44265,0.12943 0.79357,0.12783 1.25749,0.16299 0.31926,0.0193 0.65793,0.0171 0.9722,0.10047 0.12049,0.032 0.21613,0.14118 0.33992,0.15594 0.45979,0.0548 1.57538,-0.0868 1.81357,-0.10789 2.04251,-0.24546 4.70589,-0.54871 6.65498,-0.8734 1.64837,-0.2746 3.27722,-0.65935 4.92623,-0.93002 2.18575,-0.35877 7.10814,-0.96642 9.40782,-1.25894 0,0 0.006,-0.0395 0.006,-0.0395 v 0 c -3.02228,0.38444 -6.33869,0.85252 -9.37245,1.03834 -1.58109,0.0968 -3.16814,0.0495 -4.75066,0.11919 -1.14349,0.0503 -5.12862,0.35299 -6.59465,0.46194 -0.43855,0.028 -1.28513,0.10239 -1.82137,0.0897 -0.0411,-0.001 -0.34474,-0.0558 -0.37243,-0.0588 -0.32622,-0.0354 -0.65566,-0.0366 -0.98173,-0.0727 -0.45691,-0.0484 -0.78086,-0.0535 -1.21088,-0.19765 -1.10721,-0.3712 0.30137,0.0362 -0.55265,-0.31852 -0.32578,-0.1353 -0.51305,-0.0302 -0.87194,0.0331 -0.30682,0.11253 -0.60843,0.24045 -0.92046,0.33759 -0.71238,0.22179 -1.7047,0.45769 -2.44219,0.56654 -1.19747,0.17674 -2.40966,0.14984 -3.61519,0.11673 -0.47364,0.004 -0.94783,-0.0123 -1.42092,0.0107 -2.0174,0.0983 -4.00932,0.44652 -5.95781,0.97307 -0.72854,0.19688 -1.45493,0.40696 -2.16439,0.66425 -0.61027,0.22132 -1.19268,0.51299 -1.78902,0.76949 -0.49949,0.59653 -1.09135,1.12658 -1.49847,1.78959 -0.47923,0.78044 0.3962,1.05754 0.94092,1.19451 0.57023,0.14339 1.16418,0.19696 1.75212,0.20392 1.89046,0.0224 2.60749,-0.24462 4.45281,-0.64494 1.60673,-0.66112 2.23036,-0.80412 3.62787,-1.8008 0.43852,-0.31274 0.91107,-0.61876 1.21897,-1.0607 0.41909,-0.60152 0.68688,-1.30342 0.91383,-2.00052 0.0982,-0.30173 0.11474,-0.64079 0.047,-0.95078 -0.0581,-0.26565 -0.27273,-0.47052 -0.40909,-0.70578 -0.22881,-0.16261 -0.43466,-0.36372 -0.68643,-0.48785 -0.70387,-0.34702 -1.62878,-0.40486 -2.40086,-0.38871 -0.17226,0.004 -0.38603,-0.0757 -0.51549,0.038 -0.31435,0.27603 -0.47194,0.69087 -0.7079,1.03631 0.17656,0.0804 0.57061,0.0455 0.74738,0.0538 0.14617,0.007 0.29243,0.014 0.43812,0.0277 0.11844,0.0111 0.26727,0.12823 0.35383,0.0466 0.26983,-0.25442 0.39619,-0.62705 0.59428,-0.94057 -0.0108,0.0407 0.003,0.10013 -0.0325,0.12202 -0.24425,0.14873 -0.97913,0.25863 -1.15528,0.28684 -1.26311,0.20233 -2.53807,0.33426 -3.80018,0.54415 -0.5858,0.10375 -1.17402,0.19472 -1.75741,0.31126 -1.44589,0.28883 -2.90773,0.64575 -4.32798,1.03585 -1.53625,0.42197 -3.42611,0.98497 -4.92028,1.54542 -0.68743,0.25786 -1.3538,0.56869 -2.03071,0.85303 -0.51226,0.58554 -1.11713,1.10151 -1.53678,1.75662 -0.12715,0.19851 -0.20344,0.53548 -0.0407,0.70605 0.27793,0.29132 0.73189,0.35855 1.12755,0.43316 2.19854,0.41461 4.45036,-0.0292 6.58361,-0.54627 0.51749,-0.22648 1.13964,-0.29387 1.55247,-0.67942 0.44555,-0.41612 1.24847,-1.68344 0.91904,-2.50515 -0.12504,-0.31187 -0.37573,-0.56814 -0.63247,-0.7849 -0.76271,-0.64393 -1.42149,-0.78004 -2.34273,-1.10722 -0.4291,-0.0752 -0.85322,-0.18874 -1.2873,-0.22551 -1.79667,-0.15218 -3.55269,0.44894 -5.22083,1.02792 -0.73374,0.30407 -0.66718,0.11973 -0.89912,1.12441 -0.0104,0.0451 0.0933,0.007 0.13875,-0.001 0.17618,-0.0336 0.34871,-0.0841 0.52338,-0.12485 0.31306,-0.073 0.62621,-0.14564 0.93977,-0.21648 0.37798,-0.0854 0.75655,-0.16816 1.13483,-0.25224 0.36617,-0.072 0.73186,-0.14642 1.09852,-0.2159 0.13651,-0.0259 1.39289,-0.0394 1.01011,-0.76131 -0.0862,-0.16257 -0.35061,0.11222 -0.52804,0.16101 -0.81528,0.22418 -1.65994,0.42078 -2.47923,0.61948 -0.52851,0.13656 -1.05931,0.26452 -1.58553,0.40967 -2.09412,0.57764 -4.14543,1.30378 -6.13997,2.1641 0,0 -0.11864,0.20804 -0.11864,0.20804 z" />
    <path
       style="fill:#000000;fill-opacity:1;fill-rule:nonzero;stroke:none;stroke-width:0.264583"
       id="path167"
       d="m 127.27048,150.063 c 0.23586,-2.6e-4 0.47003,-0.029 0.70472,-0.0472 0.0328,-0.003 0.0666,-0.0116 0.0986,-0.004 0.009,0.002 -0.012,0.0336 -0.0108,0.0247 0.0207,-0.15003 0.0463,-0.29935 0.0694,-0.44902 -0.11287,0.0856 -0.12485,0.2829 -0.18794,0.42715 0,0 -0.008,0.0391 -0.008,0.0391 v 0 c 0.0111,0.0553 0.0607,0.4442 0.10863,0.17621 0.0621,-0.20521 0.13853,-0.40664 0.18641,-0.61564 0.005,-0.0224 -0.0383,-0.01 -0.1509,0.0226 -0.23728,0.068 -0.47504,0.13538 -0.72091,0.1659 0,0 -0.0888,0.2601 -0.0888,0.2601 z" />
    <path
       style="fill:#000000;fill-opacity:1;fill-rule:nonzero;stroke:none;stroke-width:0.264583"
       id="path169"
       d="m 144.00296,150.01384 c 0.27834,-0.007 0.60048,0.10078 0.85347,-0.0724 0.12228,-0.0837 0.1967,-0.22187 0.30101,-0.32711 0,0 0.003,-0.0399 0.003,-0.0399 v 0 c -0.0949,-0.101 -0.16185,-0.23147 -0.2744,-0.31232 -0.2447,-0.17577 -0.56132,-0.0734 -0.83501,-0.12476 0,0 -0.0481,0.87647 -0.0481,0.87647 z" />
    <path
       style="fill:#000000;fill-opacity:1;fill-rule:nonzero;stroke:none;stroke-width:0.264583"
       id="path221"
       d="m 163.90987,157.93815 c 0.85946,-0.41644 1.74931,-0.83854 2.709,-0.95917 0.22284,-0.028 0.45262,-0.0611 0.67348,-0.0203 0.16753,0.0309 0.30459,0.15269 0.45689,0.22903 0.0257,0.14162 0.12726,0.28996 0.0771,0.42487 -0.0382,0.10259 -0.023,-0.35244 -0.12166,-0.30501 -0.28416,0.13663 -0.41417,0.47959 -0.65777,0.67978 -0.31875,0.26195 -0.66811,0.4859 -1.02092,0.69979 -1.07922,0.65427 -1.33289,0.69952 -2.51182,1.17365 -1.12728,0.34714 -2.30408,0.69464 -3.50093,0.61019 -0.20846,-0.0147 -0.42371,-0.046 -0.6117,-0.13733 -0.0853,-0.0414 -0.16331,-0.33108 -0.15802,-0.23644 0.0121,0.21644 0.11983,0.41667 0.17974,0.62501 0.34685,-0.0982 0.68653,-0.22665 1.04057,-0.29453 2.84436,-0.54533 5.78673,-0.3218 8.65582,-0.17166 1.45276,0.0158 0.77347,0.027 2.03807,-0.0202 0,0 -0.004,-0.0398 -0.004,-0.0398 v 0 c -1.30652,-0.44443 -0.60004,-0.23564 -2.1268,-0.60093 -0.48914,-0.0676 -0.97616,-0.153 -1.46743,-0.20288 -1.78328,-0.18106 -3.57345,-0.17721 -5.35892,-0.031 -0.54377,0.0445 -1.08818,0.0933 -1.62686,0.17981 -0.37836,0.0608 -0.74633,0.17429 -1.1195,0.26143 -0.13064,0.39734 -0.34207,0.77674 -0.39191,1.19203 -0.0257,0.21401 0.50545,0.31345 0.86125,0.33055 1.21153,0.0582 2.39416,-0.27268 3.53603,-0.6325 0.44115,-0.17508 0.89195,-0.32756 1.32344,-0.52525 0.70518,-0.32308 1.59417,-0.82407 2.21234,-1.31126 0.24795,-0.19543 0.54062,-0.37371 0.68428,-0.65484 0.22879,-0.44769 0.33168,-0.95698 0.39433,-1.45582 0.0185,-0.14707 -0.10624,-0.27675 -0.15936,-0.41511 -0.16005,-0.0401 -0.31526,-0.12645 -0.48014,-0.12034 -0.23715,0.009 -0.46659,0.0922 -0.69283,0.16386 -0.96588,0.30588 -1.85181,0.82789 -2.75277,1.27879 0,0 -0.0791,0.28564 -0.0791,0.28564 z" />
    <path
       style="fill:#000000;fill-opacity:1;fill-rule:nonzero;stroke:none;stroke-width:0.264583"
       id="path227"
       d="m 171.18759,157.51141 c -0.42329,0.0902 -1.40547,0.24777 -1.54319,0.76242 -0.0783,0.29276 -0.10246,0.5974 -0.15368,0.8961 0.0479,0.0952 0.0735,0.20526 0.14357,0.28545 0.55769,0.63796 2.04197,0.55801 2.79905,0.54108 0.82118,-0.0989 2.11412,-0.0725 2.8056,-0.58715 0.0772,-0.0575 0.13089,-0.14123 0.19634,-0.21184 0.0837,-0.53057 0.12501,-0.59181 -0.30227,-1.36836 -0.0636,-0.11562 -0.24251,-0.10947 -0.37174,-0.13618 -0.67266,-0.13907 -1.35134,-0.0518 -2.02141,0.0356 -0.27829,0.12293 -0.55658,0.24587 -0.83487,0.36881 0,0 -0.009,0.0391 -0.009,0.0391 v 0 c 0.2242,0.1099 0.44842,0.21981 0.67262,0.32971 0.25608,0.022 0.51187,0.0477 0.76824,0.0659 0.47454,0.0338 0.92477,0.0268 1.39161,0.12721 0.15162,0.0326 0.34695,0.27061 0.44125,0.14749 0.15704,-0.20502 0.005,-0.51765 0.0385,-0.77378 0.009,-0.0711 0.0226,0.14171 0.0339,0.21256 -0.0537,0.0735 -0.0929,0.16026 -0.16119,0.22045 -0.66035,0.58197 -1.95825,0.57084 -2.77818,0.67368 -0.68131,0.0159 -1.89562,0.11259 -2.43445,-0.41987 -0.0577,-0.057 -0.0835,-0.13895 -0.12529,-0.20843 -0.0533,0.12523 -0.091,0.25834 -0.16003,0.37569 -0.0491,0.0835 0.0483,-0.1909 0.0997,-0.27303 0.2749,-0.43932 0.93215,-0.64382 1.38897,-0.81013 0,0 0.11567,-0.29247 0.11567,-0.29247 z" />
    <path
       style="fill:#000000;fill-opacity:1;fill-rule:nonzero;stroke:none;stroke-width:0.264583"
       id="path231"
       d="m 176.94776,157.21749 c 0.75765,-0.27106 1.52348,-0.51069 2.3333,-0.51105 0.24791,0.0398 0.54833,0.1041 0.67502,0.35701 0.0378,0.0755 0.0791,0.32822 0.0564,0.24691 -0.15426,-0.55219 -0.0682,-0.64989 -0.21168,-0.17202 -0.37125,0.68488 -0.94498,1.29283 -1.65168,1.6383 -0.13753,0.0672 -0.28536,0.11092 -0.42804,0.16638 -0.31102,0.0706 -1.30346,0.12205 -1.50224,-0.22992 -0.0216,-0.0382 0.002,-0.0876 0.004,-0.13146 0.0593,0.25561 0.0344,0.54709 0.1778,0.76683 0.0494,0.0757 0.15439,-0.097 0.23962,-0.12718 0.13857,-0.0491 0.28304,-0.081 0.42731,-0.10933 0.74651,-0.14659 1.48955,-0.1448 2.24699,-0.14497 1.73731,0.0108 3.4227,0.44872 5.12994,0.69742 0.49726,-0.1703 0.27632,-0.10785 0.65806,-0.20342 0,0 0.004,-0.0433 0.004,-0.0433 v 0 c -0.35062,-0.26511 -0.14968,-0.10192 -0.58769,-0.50763 -1.67225,-0.55888 -3.45358,-0.71359 -5.20405,-0.82732 -0.92826,-0.0103 -1.91897,-0.0463 -2.81567,0.24968 -0.0995,0.0328 -0.26137,0.0272 -0.28676,0.12882 -0.0831,0.33287 -0.002,0.68617 -0.002,1.02926 0.35104,0.50797 1.1528,0.39639 1.67229,0.30765 0.14704,-0.0587 0.30011,-0.10402 0.44113,-0.17596 0.71653,-0.36549 1.29557,-1.00459 1.67568,-1.70167 0.2092,-0.61935 0.16731,-0.34761 0.0127,-1.38091 -0.0596,-0.39858 -0.48846,-0.50444 -0.82185,-0.5313 -0.82289,0.037 -1.6021,0.29202 -2.36654,0.5878 0,0 0.1245,0.6214 0.1245,0.6214 z" />
    <path
       style="fill:#000000;fill-opacity:1;fill-rule:nonzero;stroke:none;stroke-width:0.264583"
       id="path233"
       d="m 185.42739,155.48787 c -0.93362,0.53884 -1.92487,0.96605 -2.89118,1.44095 -0.51257,0.28528 -0.6681,0.40676 -0.1982,1.20919 0.057,0.0973 0.22552,0.003 0.3382,-1.6e-4 0.19273,-0.006 0.38519,-0.0184 0.57778,-0.0276 1.93932,-0.13548 3.87575,-0.30942 5.81278,-0.47401 0.31838,-0.0658 0.65096,-0.0337 0.97098,-0.0908 0.0389,-0.007 0.12217,-0.009 0.10901,-0.0465 -0.19405,-0.54935 -0.21221,-0.44364 -0.64238,-0.42276 0,0 -0.003,0.0399 -0.003,0.0399 v 0 c 0.45598,0.005 0.4354,0.10605 0.66939,-0.46338 0.0139,-0.034 -0.0709,-0.0241 -0.10763,-0.0233 -0.31398,0.006 -0.62359,0.0929 -0.93691,0.0989 -1.9558,0.20013 -3.91441,0.37691 -5.87633,0.50504 -0.19083,0.008 -0.3815,0.0218 -0.57248,0.0251 -0.10693,0.002 -0.27255,-0.10535 -0.32069,-0.01 -0.12918,0.25627 -0.0695,0.56975 -0.10508,0.85451 -0.003,0.0255 -0.009,-0.0572 0.008,-0.0766 0.0628,-0.0725 0.36734,-0.23423 0.41483,-0.26137 0.9306,-0.48853 1.89222,-0.91844 2.79951,-1.45069 0,0 -0.0465,-0.82657 -0.0465,-0.82657 z" />
    <path
       style="fill:#000000;fill-opacity:1;fill-rule:nonzero;stroke:none;stroke-width:0.264583"
       id="path237"
       d="m 184.94097,156.74566 c 0.0448,0.15329 0.0873,0.30724 0.13428,0.45988 0.0554,0.18024 0.12554,0.35612 0.17271,0.53868 0.18418,0.71272 0.21365,1.43692 0.24562,2.16739 0.0458,0.27548 -0.0934,2.09838 0.058,0.5486 -0.0349,0.0243 -0.0697,0.0485 -0.10459,0.0728 0,0 -0.003,0.0478 -0.003,0.0478 v 0 c 0.0359,0.0183 0.0718,0.0367 0.10765,0.055 0.0801,-0.26345 0.17106,-0.52385 0.24029,-0.79036 0.12018,-0.46262 0.0137,-0.97467 0.04,-1.44249 -0.0676,-0.97408 -0.25022,-2.00664 -0.64356,-2.90277 0,0 -0.24726,1.24541 -0.24726,1.24541 z" />
  </g>
</svg>
